<?xml version="1.0" standalone="no"?>
<!DOCTYPE svg PUBLIC "-//W3C//DTD SVG 1.1//EN" "http://www.w3.org/Graphics/SVG/1.1/DTD/svg11.dtd" >
<svg xmlns="http://www.w3.org/2000/svg">
<metadata>Generated by IcoMoon</metadata>
<defs>
<font id="icomoon" horiz-adv-x="1024">
<font-face units-per-em="1024" ascent="960" descent="-64" />
<missing-glyph horiz-adv-x="1024" />
<glyph unicode="&#x20;" horiz-adv-x="512" d="" />
<glyph unicode="&#x31;" glyph-name="Icon-set-28" horiz-adv-x="998" d="M353.28 248.32l35.84-35.84 189.44 184.32-189.44 184.32-35.84-35.84 122.88-122.88h-476.16v-51.2h476.16zM870.4 960h-614.4c-71.68 0-128-56.32-128-128v-250.88h51.2v250.88c0 40.96 35.84 76.8 76.8 76.8h614.4c40.96 0 76.8-35.84 76.8-76.8v-768c0-40.96-35.84-76.8-76.8-76.8h-614.4c-40.96 0-76.8 35.84-76.8 76.8v158.72h-51.2v-158.72c0-71.68 56.32-128 128-128h614.4c71.68 0 128 56.32 128 128v768c0 71.68-56.32 128-128 128z" />
<glyph unicode="&#x32;" glyph-name="Icon-set-29" horiz-adv-x="1021" d="M513.69 696.396c-94.627 0-182.495-57.452-223.050-145.32 23.657 0 321.056 0 442.719 0-37.175 87.868-125.043 145.32-219.67 145.32zM513.69 939.723c-270.363 0-490.033-219.67-490.033-490.033s219.67-490.033 490.033-490.033c270.363 0 490.033 219.67 490.033 490.033s-219.67 490.033-490.033 490.033zM327.815 290.851c47.314-54.073 114.904-84.488 185.875-84.488 67.591 0 135.182 30.416 182.495 81.109 10.139 13.518 20.277 27.036 30.416 40.554 0 3.38 3.38 10.139 6.759 10.139 13.518 0 98.007 0 128.422 0-23.657-64.211-60.832-121.663-111.525-165.597-64.211-54.073-141.941-84.488-226.429-87.868-145.32-3.38-283.881 84.488-341.333 216.29-57.452 135.182-30.416 297.399 74.35 402.165 47.314 50.693 111.525 87.868 182.495 104.766 74.35 16.898 152.079 6.759 219.67-20.277 135.182-57.452 219.67-192.634 219.67-337.954 0-3.38 0-13.518 0-13.518s-493.413 0-608.317 0c3.38-54.073 23.657-104.766 57.452-145.32z" />
<glyph unicode="&#x33;" glyph-name="Icon-set-31" horiz-adv-x="1644" d="M821.895-37.053c-40.421 0-67.368 13.474-94.316 40.421l-673.684 714.105c-53.895 53.895-53.895 134.737 0 188.632s134.737 53.895 188.632 0l579.368-619.789 565.895 606.316c53.895 53.895 134.737 53.895 188.632 0s53.895-134.737 0-188.632l-673.684-714.105c0-13.474-40.421-26.947-80.842-26.947z" />
<glyph unicode="&#x34;" glyph-name="Icon-set-32" horiz-adv-x="1644" d="M1482.105-50.526c-40.421 0-67.368 13.474-94.316 40.421l-565.895 619.789-565.895-619.789c-53.895-53.895-134.737-53.895-188.632-13.474-53.895 53.895-53.895 134.737-13.474 188.632l660.211 727.579c67.368 67.368 161.684 67.368 202.105 13.474l660.211-727.579c53.895-53.895 40.421-134.737-13.474-188.632-13.474-26.947-40.421-40.421-80.842-40.421z" />
<glyph unicode="&#x35;" glyph-name="Icon-set-33" horiz-adv-x="1674" d="M652.434 960h1024l-652.434-1024h-1024l652.434 1024z" />
<glyph unicode="&#x61;" glyph-name="Icon-set-01" horiz-adv-x="5381" d="M1512.283 436.374l-294.83-501.304h-252.047l311.571 501.304-311.571 523.626h238.096l308.781-523.626zM1030.51 436.374l-294.83-501.304h-252.047l311.571 501.304-311.571 523.626h238.096l308.781-523.626zM545.947 436.374l-294.83-500.374h-252.047l311.571 501.304-311.571 522.696h238.096l308.781-523.626zM3445.886 436.374l-294.83-501.304h-252.047l311.571 501.304-311.571 523.626h238.096l308.781-523.626zM2964.113 436.374l-294.83-500.374h-252.047l311.571 501.304-311.571 522.696h238.096l308.781-523.626zM2479.55 436.374l-294.83-501.304h-252.047l311.571 501.304-311.571 523.626h238.096l308.781-523.626zM1996.847 436.374l-294.83-501.304h-252.047l311.571 501.304-311.571 523.626h238.096l308.781-523.626zM5379.488 436.374l-294.83-501.304h-252.047l311.571 501.304-311.571 523.626h238.096l308.781-523.626zM4897.715 436.374l-294.83-501.304h-252.047l311.571 501.304-311.571 523.626h238.096l308.781-523.626zM4413.152 436.374l-294.83-501.304h-252.047l311.571 501.304-311.571 523.626h238.096l308.781-523.626zM3930.449 436.374l-293.9-500.374h-252.047l311.571 501.304-312.501 522.696h238.096l308.781-523.626z" />
<glyph unicode="&#x62;" glyph-name="Icon-set-04" d="M650.871 435.375c-14.027 16.833-36.471 25.249-58.915 30.86v2.805c16.833 8.416 30.86 19.638 42.082 33.666s14.027 33.666 14.027 53.304c0 16.833-2.805 30.86-11.222 44.888s-16.833 22.444-33.666 30.86c-14.027 8.416-28.055 11.222-42.082 14.027s-39.277 2.805-67.332 2.805h-143.079v-398.378h162.718c28.055 0 50.499 2.805 70.137 8.416s33.666 14.027 50.499 25.249c14.027 8.416 22.444 22.444 30.86 36.471s11.222 33.666 11.222 53.304c-2.805 25.249-8.416 44.888-25.249 61.721zM538.652 511.123c-2.805-5.611-8.416-11.222-16.833-16.833-8.416-2.805-14.027-5.611-22.444-5.611-5.611 0-19.638 0-36.471 0h-14.027v84.164h8.416c16.833 0 30.86 0 42.082 0 8.416 0 16.833-2.805 25.249-5.611s11.222-8.416 16.833-14.027c2.805-5.611 5.611-14.027 5.611-19.638-2.805-8.416-5.611-14.027-8.416-22.444zM563.901 345.6c-5.611-8.416-11.222-14.027-19.638-16.833-11.222-5.611-19.638-5.611-30.86-8.416-11.222 0-28.055 0-56.11 0h-5.611v100.997h19.638c16.833 0 33.666 0 44.888 0s19.638-2.805 25.249-2.805c11.222-2.805 16.833-8.416 22.444-16.833 5.611-5.611 8.416-16.833 8.416-28.055-2.805-11.222-5.611-19.638-8.416-28.055zM513.403-64c-283.353 0-513.403 230.049-513.403 513.403 0 280.548 230.049 510.597 513.403 510.597s513.403-230.049 513.403-510.597c-2.805-283.353-232.855-513.403-513.403-513.403zM513.403 917.918c-260.91 0-471.321-210.411-471.321-468.515 0-260.91 210.411-471.321 471.321-471.321s468.515 210.411 468.515 471.321c0 258.104-210.411 468.515-468.515 468.515z" />
<glyph unicode="&#x63;" glyph-name="Icon-set-05" d="M513.403-64c-283.353 0-513.403 230.049-513.403 513.403 0 280.548 230.049 510.597 513.403 510.597s513.403-230.049 513.403-510.597c-2.805-283.353-232.855-513.403-513.403-513.403zM513.403 917.918c-260.91 0-471.321-210.411-471.321-468.515 0-260.91 210.411-471.321 471.321-471.321s468.515 210.411 468.515 471.321c0 258.104-210.411 468.515-468.515 468.515zM631.233 671.036c-8.416 0-33.666 2.805-61.721 2.805-61.721 0-103.803-36.471-103.803-106.608v-58.915h-72.942v-81.359h70.137v-207.605h84.164v207.605h70.137l11.222 81.359h-81.359v50.499c0 22.444 5.611 39.277 39.277 39.277h42.082v72.942z" />
<glyph unicode="&#x64;" glyph-name="Icon-set-06" d="M513.403-64c-283.353 0-513.403 230.049-513.403 513.403 0 280.548 230.049 510.597 513.403 510.597s513.403-230.049 513.403-510.597c-2.805-283.353-232.855-513.403-513.403-513.403zM513.403 917.918c-260.91 0-471.321-210.411-471.321-468.515 0-260.91 210.411-471.321 471.321-471.321s468.515 210.411 468.515 471.321c0 258.104-210.411 468.515-468.515 468.515zM485.348 331.573c-44.888 5.611-84.164 14.027-117.83 42.082-5.611 2.805-8.416 5.611-11.222 11.222-14.027 14.027-16.833 30.86-5.611 47.693 11.222 14.027 28.055 19.638 44.888 11.222 2.805-2.805 5.611-2.805 8.416-5.611 64.526-44.888 151.496-44.888 213.216-2.805 5.611 5.611 14.027 8.416 19.638 11.222 14.027 2.805 28.055-2.805 36.471-14.027 8.416-14.027 8.416-30.86-2.805-42.082-16.833-16.833-39.277-30.86-61.721-39.277s-47.693-14.027-70.137-16.833c2.805-2.805 5.611-5.611 8.416-8.416 33.666-33.666 64.526-64.526 98.192-98.192 11.222-11.222 14.027-25.249 8.416-39.277s-22.444-22.444-36.471-22.444c-8.416 0-16.833 5.611-22.444 11.222-25.249 25.249-50.499 50.499-72.942 75.748-8.416 8.416-11.222 5.611-16.833 0-25.249-25.249-50.499-50.499-75.748-75.748-11.222-11.222-25.249-14.027-39.277-5.611-14.027 5.611-22.444 22.444-22.444 36.471 0 8.416 5.611 16.833 11.222 25.249 33.666 33.666 64.526 64.526 98.192 98.192 2.805-5.611 2.805-2.805 8.416 0v0zM510.597 443.792c-78.553 0-143.079 64.526-143.079 143.079s64.526 143.079 143.079 143.079c78.553 0 143.079-64.526 143.079-145.885 0-75.748-64.526-140.274-143.079-140.274v0zM583.54 589.677c0 39.277-30.86 70.137-70.137 70.137s-70.137-30.86-70.137-70.137c0-39.277 30.86-70.137 70.137-70.137 39.277-2.805 70.137 30.86 70.137 70.137v0z" />
<glyph unicode="&#x65;" glyph-name="Icon-set-07" d="M513.403-64c-283.353 0-513.403 230.049-513.403 513.403 0 280.548 230.049 510.597 513.403 510.597s513.403-230.049 513.403-510.597c-2.805-283.353-232.855-513.403-513.403-513.403zM513.403 917.918c-260.91 0-471.321-210.411-471.321-468.515 0-260.91 210.411-471.321 471.321-471.321s468.515 210.411 468.515 471.321c0 258.104-210.411 468.515-468.515 468.515zM605.984 449.403c0-109.414-89.775-196.384-199.189-196.384s-199.189 86.97-199.189 196.384 89.775 196.384 199.189 196.384c44.888 0 86.97-14.027 120.636-39.277l-47.693-58.915c-22.444 16.833-47.693 25.249-75.748 25.249-67.332 0-123.441-53.304-123.441-120.636s56.11-120.636 123.441-120.636c56.11 0 100.997 36.471 117.83 84.164h-117.83v75.748h199.189v-42.082zM816.395 424.153h-56.11v-56.11h-50.499v56.11h-56.11v47.693h56.11v56.11h50.499v-56.11h56.11v-47.693z" />
<glyph unicode="&#x66;" glyph-name="Icon-set-08" horiz-adv-x="1348" d="M93.091 126.229c44.522 0 80.949-36.427 80.949-80.949s-36.427-80.949-80.949-80.949-80.949 36.427-80.949 80.949c0 44.522 36.427 80.949 80.949 80.949zM93.091 530.972c44.522 0 80.949-36.427 80.949-80.949s-36.427-80.949-80.949-80.949-80.949 36.427-80.949 80.949c0 44.522 36.427 80.949 80.949 80.949zM93.091 935.715c44.522 0 80.949-36.427 80.949-80.949s-36.427-80.949-80.949-80.949-80.949 36.427-80.949 80.949 36.427 80.949 80.949 80.949zM376.411 895.241h930.909v-80.949h-930.909v80.949zM376.411 490.498h930.909v-80.949h-930.909v80.949zM376.411 85.755h930.909v-80.949h-930.909v80.949z" />
<glyph unicode="&#x67;" glyph-name="Icon-set-09" horiz-adv-x="1698" d="M835.368-64c-40.421 0-67.368 13.474-94.316 40.421l-633.263 673.684c-53.895 53.895-53.895 134.737 0 188.632s134.737 53.895 188.632 0l538.947-579.368 538.947 579.368c53.895 53.895 134.737 53.895 188.632 0s53.895-134.737 0-188.632l-633.263-673.684c-13.474-26.947-53.895-40.421-94.316-40.421z" />
<glyph unicode="&#x68;" glyph-name="Icon-set-25" horiz-adv-x="534" d="M304.232 960h230.029l-296.812-497.159 296.812-519.42h-244.87l-289.391 519.42 304.232 497.159z" />
<glyph unicode="&#x6b;" glyph-name="Icon-set-10" horiz-adv-x="609" d="M132.414-11.034c-26.483 0-44.138 8.828-61.793 26.483-35.31 35.31-35.31 88.276 0 123.586l291.31 291.31-291.31 291.31c-35.31 35.31-35.31 88.276 0 123.586s88.276 35.31 123.586 0l414.897-414.897-414.897-414.897c-17.655-17.655-35.31-26.483-61.793-26.483z" />
<glyph unicode="&#x6c;" glyph-name="Icon-set-11" horiz-adv-x="736" d="M567.008-64c-25.388 0-42.314 8.463-59.24 25.388l-423.14 423.14c-33.851 33.851-33.851 84.628 0 118.479l423.14 423.14c25.388 33.851 84.628 33.851 118.479 0s33.851-84.628 0-118.479l-363.901-363.901 363.901-363.901c33.851-33.851 33.851-84.628 0-118.479-16.926-16.926-42.314-25.388-59.24-25.388z" />
<glyph unicode="&#x6d;" glyph-name="Icon-set-12" horiz-adv-x="683" d="M144.119 11.852c-22.756 0-37.926 7.585-53.096 22.756-30.341 30.341-30.341 75.852 7.585 106.193l341.333 318.578-348.919 318.578c-30.341 22.756-30.341 75.852 0 106.193s75.852 30.341 106.193 7.585l402.015-371.674c15.17-15.17 22.756-37.926 22.756-53.096s-7.585-53.096-22.756-68.267l-402.015-371.674c-15.17-7.585-30.341-15.17-53.096-15.17z" />
<glyph unicode="&#x6e;" glyph-name="Icon-set-13" horiz-adv-x="990" d="M592.842 441.263l323.368 323.368c26.947 26.947 26.947 67.368 0 94.316s-67.368 26.947-94.316 0l-323.368-323.368-323.368 323.368c-26.947 26.947-67.368 26.947-94.316 0s-26.947-67.368 0-94.316l323.368-323.368-323.368-323.368c-26.947-26.947-26.947-67.368 0-94.316 13.474-13.474 33.684-20.211 47.158-20.211s33.684 6.737 47.158 20.211l323.368 323.368 323.368-323.368c13.474-13.474 33.684-20.211 47.158-20.211s33.684 6.737 47.158 20.211c26.947 26.947 26.947 67.368 0 94.316l-323.368 323.368z" />
<glyph unicode="&#x6f;" glyph-name="Icon-set-14" d="M933.647 396.8h-280.094c-51.2 0-90.353-39.153-90.353-90.353v-280.094c0-51.2 39.153-90.353 90.353-90.353h280.094c51.2 0 90.353 39.153 90.353 90.353v280.094c0 48.188-39.153 90.353-90.353 90.353zM963.765 26.353c0-18.071-12.047-30.118-30.118-30.118h-280.094c-18.071 0-30.118 12.047-30.118 30.118v280.094c0 18.071 12.047 30.118 30.118 30.118h280.094c18.071 0 30.118-12.047 30.118-30.118v-280.094zM933.647 960h-280.094c-51.2 0-90.353-39.153-90.353-90.353v-280.094c0-51.2 39.153-90.353 90.353-90.353h280.094c51.2 0 90.353 39.153 90.353 90.353v280.094c0 51.2-39.153 90.353-90.353 90.353zM963.765 589.553c0-18.071-12.047-30.118-30.118-30.118h-280.094c-18.071 0-30.118 12.047-30.118 30.118v280.094c0 18.071 12.047 30.118 30.118 30.118h280.094c18.071 0 30.118-12.047 30.118-30.118v-280.094zM370.447 396.8h-280.094c-51.2 0-90.353-39.153-90.353-90.353v-280.094c0-51.2 39.153-90.353 90.353-90.353h280.094c51.2 0 90.353 39.153 90.353 90.353v280.094c0 48.188-42.165 90.353-90.353 90.353zM400.565 26.353c0-18.071-12.047-30.118-30.118-30.118h-280.094c-18.071 0-30.118 12.047-30.118 30.118v280.094c0 18.071 12.047 30.118 30.118 30.118h280.094c18.071 0 30.118-12.047 30.118-30.118v-280.094zM370.447 960h-280.094c-51.2 0-90.353-39.153-90.353-90.353v-280.094c0-51.2 39.153-90.353 90.353-90.353h280.094c51.2 0 90.353 39.153 90.353 90.353v280.094c0 51.2-42.165 90.353-90.353 90.353zM400.565 589.553c0-18.071-12.047-30.118-30.118-30.118h-280.094c-18.071 0-30.118 12.047-30.118 30.118v280.094c0 18.071 12.047 30.118 30.118 30.118h280.094c18.071 0 30.118-12.047 30.118-30.118v-280.094z" />
<glyph unicode="&#x70;" glyph-name="Icon-set-15" horiz-adv-x="995" d="M906.971 178.834h-476.891c-49.737 0-87.771-38.034-87.771-87.771v-38.034c0-49.737 38.034-87.771 87.771-87.771h476.891c49.737 0 87.771 38.034 87.771 87.771v38.034c0 46.811-38.034 87.771-87.771 87.771zM936.229 53.029c0-17.554-11.703-29.257-29.257-29.257h-476.891c-17.554 0-29.257 11.703-29.257 29.257v38.034c0 17.554 11.703 29.257 29.257 29.257h476.891c17.554 0 29.257-11.703 29.257-29.257v-38.034zM184.32 208.091h-96.549c-49.737 0-87.771-38.034-87.771-87.771v-96.549c0-49.737 38.034-87.771 87.771-87.771h96.549c49.737 0 87.771 38.034 87.771 87.771v96.549c0 46.811-40.96 87.771-87.771 87.771zM213.577 23.771c0-17.554-11.703-29.257-29.257-29.257h-96.549c-17.554 0-29.257 11.703-29.257 29.257v96.549c0 17.554 11.703 29.257 29.257 29.257h96.549c17.554 0 29.257-11.703 29.257-29.257v-96.549zM906.971 559.177h-476.891c-49.737 0-87.771-38.034-87.771-87.771v-38.034c0-49.737 38.034-87.771 87.771-87.771h476.891c49.737 0 87.771 38.034 87.771 87.771v38.034c0 46.811-38.034 87.771-87.771 87.771zM936.229 433.371c0-17.554-11.703-29.257-29.257-29.257h-476.891c-17.554 0-29.257 11.703-29.257 29.257v38.034c0 17.554 11.703 29.257 29.257 29.257h476.891c17.554 0 29.257-11.703 29.257-29.257v-38.034zM906.971 930.743h-476.891c-49.737 0-87.771-38.034-87.771-87.771v-38.034c0-49.737 38.034-87.771 87.771-87.771h476.891c49.737 0 87.771 38.034 87.771 87.771v38.034c0 49.737-38.034 87.771-87.771 87.771zM936.229 804.937c0-17.554-11.703-29.257-29.257-29.257h-476.891c-17.554 0-29.257 11.703-29.257 29.257v38.034c0 17.554 11.703 29.257 29.257 29.257h476.891c17.554 0 29.257-11.703 29.257-29.257v-38.034zM184.32 588.434h-96.549c-49.737 0-87.771-38.034-87.771-87.771v-96.549c0-49.737 38.034-87.771 87.771-87.771h96.549c49.737 0 87.771 38.034 87.771 87.771v96.549c0 46.811-40.96 87.771-87.771 87.771zM213.577 404.114c0-17.554-11.703-29.257-29.257-29.257h-96.549c-17.554 0-29.257 11.703-29.257 29.257v96.549c0 17.554 11.703 29.257 29.257 29.257h96.549c17.554 0 29.257-11.703 29.257-29.257v-96.549zM184.32 960h-96.549c-49.737 0-87.771-38.034-87.771-87.771v-96.549c0-49.737 38.034-87.771 87.771-87.771h96.549c49.737 0 87.771 38.034 87.771 87.771v96.549c0 49.737-40.96 87.771-87.771 87.771zM213.577 775.68c0-17.554-11.703-29.257-29.257-29.257h-96.549c-17.554 0-29.257 11.703-29.257 29.257v96.549c0 17.554 11.703 29.257 29.257 29.257h96.549c17.554 0 29.257-11.703 29.257-29.257v-96.549z" />
<glyph unicode="&#x71;" glyph-name="Icon-set-19" horiz-adv-x="1178" d="M789.333 699.733h38.4c17.067 0 34.133 17.067 34.133 34.133s-17.067 34.133-34.133 34.133h-38.4c-17.067 0-34.133-17.067-34.133-34.133s12.8-34.133 34.133-34.133zM1160.533 930.133c-8.533 17.067-29.867 29.867-51.2 29.867h-1036.8c-21.333 0-42.667-12.8-51.2-29.867-8.533-21.333-8.533-42.667 4.267-59.733l430.933-529.067v-345.6c0-21.333 12.8-38.4 29.867-51.2 8.533-4.267 17.067-8.533 25.6-8.533 12.8 0 25.6 4.267 34.133 8.533l136.533 93.867c21.333 17.067 34.133 38.4 34.133 68.267v234.667l439.467 524.8c12.8 21.333 17.067 42.667 4.267 64zM516.267 375.467l-264.533 324.267h426.667c17.067 0 34.133 17.067 34.133 34.133s-17.067 34.133-34.133 34.133h-482.133l-102.4 123.733h994.133l-426.667-524.8c-4.267-8.533-8.533-12.8-8.533-21.333v-238.933c0-4.267-4.267-8.533-4.267-12.8l-119.467-81.067v337.067c0 12.8-4.267 21.333-12.8 25.6z" />
<glyph unicode="&#x72;" glyph-name="Icon-set-16" horiz-adv-x="1331" d="M409.6-64c-30.72 0-51.2 10.24-71.68 30.72l-307.2 307.2c-40.96 40.96-40.96 102.4 0 143.36s102.4 40.96 143.36 0l235.52-235.52 747.52 747.52c40.96 40.96 102.4 40.96 143.36 0s40.96-102.4 0-143.36l-819.2-819.2c-20.48-20.48-40.96-30.72-71.68-30.72z" />
<glyph unicode="&#x73;" glyph-name="Icon-set-17" horiz-adv-x="606" d="M96.947-21.586c-12.118 0-24.237 6.059-30.296 12.118-18.178 18.178-18.178 48.473 0 66.651l387.787 393.846-387.787 399.905c-18.178 18.178-18.178 48.473 0 66.651s48.473 18.178 66.651 0l412.024-430.201c18.178-18.178 18.178-48.473 0-60.592l-418.083-436.26c-6.059-6.059-18.178-12.118-30.296-12.118z" />
<glyph unicode="&#x74;" glyph-name="Icon-set-18" horiz-adv-x="594" d="M508.97-21.586c12.118 0 24.237 6.059 30.296 12.118 18.178 18.178 18.178 48.473 0 66.651l-387.787 393.846 387.787 393.846c18.178 18.178 18.178 48.473 0 66.651s-48.473 18.178-66.651 0l-418.083-424.142c-18.178-18.178-18.178-48.473 0-60.592l418.083-436.26c12.118-6.059 24.237-12.118 36.355-12.118z" />
<glyph unicode="&#x75;" glyph-name="Icon-set-24" horiz-adv-x="534" d="M534.261 462.841l-289.391-519.42h-244.87l296.812 519.42-296.812 497.159h230.029l304.232-497.159z" />
<glyph unicode="&#x77;" glyph-name="Icon-set-22" horiz-adv-x="530" d="M303.669-64h225.986l-298.372 501.407 298.372 522.593h-240.11l-289.545-522.593 303.669-501.407z" />
<glyph unicode="&#x78;" glyph-name="Icon-set-27" horiz-adv-x="1020" d="M695.154 214.894c-70.764 0-124.878-54.114-124.878-124.878s54.114-124.878 124.878-124.878 124.878 54.114 124.878 124.878-54.114 124.878-124.878 124.878zM695.154 6.764c-45.789 0-83.252 37.463-83.252 83.252s37.463 83.252 83.252 83.252 83.252-37.463 83.252-83.252-37.463-83.252-83.252-83.252zM362.146 214.894c-70.764 0-124.878-54.114-124.878-124.878s54.114-124.878 124.878-124.878 124.878 54.114 124.878 124.878-54.114 124.878-124.878 124.878zM362.146 6.764c-45.789 0-83.252 37.463-83.252 83.252s37.463 83.252 83.252 83.252 83.252-37.463 83.252-83.252-37.463-83.252-83.252-83.252zM324.683 735.22l20.813 120.715-228.943 45.789-8.325-41.626 187.317-37.463-70.764-420.423c0 0-120.715-237.268-79.089-303.87 8.325-12.488 20.813-24.976 49.951-24.976v41.626c-8.325 0-12.488 4.163-12.488 4.163-16.65 29.138 12.488 120.715 49.951 203.967h599.415l183.154 416.26h-690.992zM807.545 360.585h-545.301l54.114 333.008h636.878l-145.691-333.008z" />
<glyph unicode="&#x79;" glyph-name="Icon-set-23" horiz-adv-x="530" d="M529.655 437.407l-289.545 522.593h-240.11l298.372-522.593-298.372-501.407h225.986l303.669 501.407z" />
<glyph unicode="&#x7a;" glyph-name="Icon-set-26" d="M1024-26.594l-247.817 247.817c70.137 79.489 112.219 182.356 112.219 294.575 0 243.142-201.059 444.201-444.201 444.201s-444.201-201.059-444.201-444.201 201.059-444.201 444.201-444.201c112.219 0 219.763 42.082 294.575 112.219l247.817-247.817 37.406 37.406zM46.758 515.799c0 219.763 177.68 397.443 397.443 397.443s397.443-177.68 397.443-397.443c0-107.543-42.082-201.059-107.543-271.196l-14.027-14.027c-70.137-65.461-168.329-107.543-271.196-107.543-224.438-4.676-402.119 173.005-402.119 392.767z" />
</font>
</defs>
</svg>
